<svg width="20" height="20" viewBox="0 0 20 20" fill="none" xmlns="http://www.w3.org/2000/svg">
<path d="M10 19.75C12.5859 19.75 15.0658 18.7228 16.8943 16.8943C18.7228 15.0658 19.75 12.5859 19.75 10C19.75 7.41414 18.7228 4.93419 16.8943 3.10571C15.0658 1.27723 12.5859 0.25 10 0.25C9.80109 0.25 9.61032 0.329018 9.46967 0.46967C9.32902 0.610322 9.25 0.801088 9.25 1V3.25C9.25 3.44891 9.32902 3.63968 9.46967 3.78033C9.61032 3.92098 9.80109 4 10 4C10.1989 4 10.3897 3.92098 10.5303 3.78033C10.671 3.63968 10.75 3.44891 10.75 3.25V1.78367C12.3112 1.9263 13.7995 2.51081 15.0405 3.46877C16.2816 4.42672 17.2239 5.71844 17.7573 7.19266C18.2907 8.66688 18.393 10.2626 18.0522 11.7928C17.7114 13.3231 16.9417 14.7245 15.8331 15.8331C14.7245 16.9417 13.3231 17.7114 11.7928 18.0522C10.2626 18.393 8.66688 18.2907 7.19266 17.7573C5.71844 17.2239 4.42672 16.2816 3.46877 15.0405C2.51081 13.7995 1.9263 12.3112 1.78367 10.75H3.25C3.44891 10.75 3.63968 10.671 3.78033 10.5303C3.92098 10.3897 4 10.1989 4 10C4 9.80109 3.92098 9.61032 3.78033 9.46967C3.63968 9.32902 3.44891 9.25 3.25 9.25H1C0.801088 9.25 0.610322 9.32902 0.46967 9.46967C0.329018 9.61032 0.25 9.80109 0.25 10C0.252918 12.585 1.28108 15.0632 3.10893 16.8911C4.93678 18.7189 7.41503 19.7471 10 19.75Z" fill="#2F4CDD"/>
<path d="M8.55729 9.61646C8.52196 9.74132 8.50318 9.87027 8.50141 10C8.50141 10.2967 8.58939 10.5867 8.75421 10.8334C8.91903 11.08 9.1533 11.2723 9.42739 11.3858C9.70148 11.4994 10.0031 11.5291 10.2941 11.4712C10.585 11.4133 10.8523 11.2705 11.0621 11.0607C11.2719 10.8509 11.4147 10.5836 11.4726 10.2926C11.5305 10.0017 11.5008 9.70008 11.3872 9.42599C11.2737 9.1519 11.0814 8.91763 10.8348 8.75281C10.5881 8.58798 10.2981 8.50001 10.0014 8.50001C9.87167 8.50177 9.74271 8.52058 9.61787 8.55596L4.15666 3.09475C4.08747 3.02312 4.00471 2.96598 3.91321 2.92667C3.82171 2.88737 3.72329 2.86668 3.62371 2.86581C3.52412 2.86495 3.42536 2.88392 3.33319 2.92163C3.24102 2.95934 3.15728 3.01503 3.08686 3.08545C3.01644 3.15587 2.96075 3.23961 2.92304 3.33179C2.88533 3.42396 2.86635 3.52272 2.86722 3.6223C2.86808 3.72189 2.88877 3.8203 2.92808 3.9118C2.96738 4.00331 3.02452 4.08607 3.09615 4.15525L8.55729 9.61646Z" fill="#2F4CDD"/>
<path d="M13.75 10C13.75 10.1989 13.829 10.3897 13.9697 10.5303C14.1103 10.671 14.3011 10.75 14.5 10.75H16C16.1989 10.75 16.3897 10.671 16.5303 10.5303C16.671 10.3897 16.75 10.1989 16.75 10C16.75 9.80109 16.671 9.61032 16.5303 9.46967C16.3897 9.32902 16.1989 9.25 16 9.25H14.5C14.3011 9.25 14.1103 9.32902 13.9697 9.46967C13.829 9.61032 13.75 9.80109 13.75 10Z" fill="#2F4CDD"/>
<path d="M13.7107 5.22678L12.6496 6.2875C12.5799 6.35714 12.5246 6.43981 12.4869 6.53081C12.4492 6.62181 12.4297 6.71935 12.4297 6.81786C12.4297 6.91637 12.449 7.01393 12.4867 7.10495C12.5244 7.19598 12.5796 7.2787 12.6492 7.34838C12.7188 7.41806 12.8015 7.47335 12.8925 7.51108C12.9835 7.54881 13.0811 7.56825 13.1796 7.56828C13.2781 7.56832 13.3756 7.54895 13.4667 7.51128C13.5577 7.47361 13.6404 7.41839 13.7101 7.34875L14.7714 6.28825C14.8411 6.2186 14.8964 6.13591 14.9342 6.04489C14.9719 5.95387 14.9913 5.85631 14.9914 5.75778C14.9914 5.65925 14.972 5.56167 14.9344 5.47063C14.8967 5.37958 14.8414 5.29685 14.7718 5.22715C14.7021 5.15745 14.6195 5.10216 14.5284 5.06442C14.4374 5.02668 14.3399 5.00724 14.2413 5.0072C14.1428 5.00717 14.0452 5.02654 13.9542 5.06421C13.8631 5.10189 13.7804 5.15713 13.7107 5.22678Z" fill="#2F4CDD"/>
</svg>
