<svg width="24" height="24" viewBox="0 0 24 24" fill="none" xmlns="http://www.w3.org/2000/svg">
<path d="M9.75 12.75C10.3433 12.75 10.9234 12.5741 11.4167 12.2444C11.9101 11.9148 12.2946 11.4462 12.5216 10.8981C12.7487 10.3499 12.8081 9.74667 12.6924 9.16473C12.5766 8.58279 12.2909 8.04824 11.8713 7.62868C11.4518 7.20912 10.9172 6.9234 10.3353 6.80765C9.75333 6.69189 9.15013 6.7513 8.60195 6.97836C8.05377 7.20543 7.58524 7.58994 7.25559 8.08329C6.92595 8.57664 6.75 9.15666 6.75 9.75C6.75077 10.5454 7.06709 11.308 7.62954 11.8705C8.19198 12.4329 8.95459 12.7492 9.75 12.75ZM9.75 8.25C10.0467 8.25 10.3367 8.33798 10.5834 8.5028C10.83 8.66762 11.0223 8.90189 11.1358 9.17598C11.2494 9.45007 11.2791 9.75167 11.2212 10.0426C11.1633 10.3336 11.0204 10.6009 10.8107 10.8107C10.6009 11.0204 10.3336 11.1633 10.0426 11.2212C9.75166 11.2791 9.45006 11.2494 9.17598 11.1358C8.90189 11.0223 8.66762 10.83 8.5028 10.5834C8.33797 10.3367 8.25 10.0467 8.25 9.75C8.25054 9.35234 8.40874 8.97112 8.68993 8.68993C8.97112 8.40874 9.35234 8.25054 9.75 8.25Z" fill="#5B5B5B"/>
<path d="M21.4695 14.6775C21.7171 14.3459 21.8825 13.9603 21.9522 13.5524C22.0218 13.1444 21.9937 12.7258 21.8702 12.3308L21.3941 10.7818C21.1705 10.0471 20.7161 9.40402 20.0983 8.94796C19.4804 8.4919 18.732 8.24716 17.964 8.25002H14.5987C14.3998 8.25002 14.209 8.32904 14.0684 8.46969C13.9277 8.61035 13.8487 8.80111 13.8487 9.00002C13.8487 9.19894 13.9277 9.3897 14.0684 9.53035C14.209 9.67101 14.3998 9.75002 14.5987 9.75002H17.964C18.4109 9.74849 18.8464 9.891 19.2059 10.1564C19.5654 10.4219 19.8298 10.7961 19.9599 11.2236L20.436 12.772C20.4885 12.9428 20.5002 13.1235 20.4702 13.2997C20.4402 13.4758 20.3693 13.6425 20.2632 13.7862C20.157 13.93 20.0187 14.0468 19.8591 14.1274C19.6996 14.2079 19.5235 14.2499 19.3448 14.25H12.4681C12.4469 14.25 12.4291 14.2603 12.4081 14.2621C12.3577 14.2601 12.309 14.25 12.2579 14.25H7.55538C6.72194 14.247 5.90974 14.5128 5.23935 15.0079C4.56895 15.5031 4.0761 16.2013 3.83396 16.9988L3.27401 18.8175C3.14321 19.2431 3.1141 19.6935 3.189 20.1324C3.26391 20.5714 3.44074 20.9866 3.70529 21.3448C3.96984 21.7029 4.31473 21.994 4.71223 22.1947C5.10973 22.3953 5.54876 22.4999 5.99403 22.5H13.8187C14.264 22.4999 14.7031 22.3954 15.1006 22.1948C15.4981 21.9941 15.8431 21.703 16.1077 21.3449C16.3722 20.9867 16.5491 20.5715 16.624 20.1325C16.6989 19.6936 16.6698 19.2432 16.539 18.8175L15.9795 16.9989C15.8377 16.546 15.6145 16.1228 15.3209 15.75H19.3448C19.7585 15.7519 20.1668 15.6557 20.5361 15.4693C20.9055 15.2829 21.2254 15.0115 21.4695 14.6775ZM14.9012 20.4534C14.7768 20.6236 14.6138 20.7619 14.4257 20.8569C14.2375 20.9519 14.0295 21.0009 13.8187 21H5.99403C5.78343 21 5.57577 20.9505 5.38776 20.8556C5.19975 20.7607 5.03664 20.6231 4.91154 20.4536C4.78644 20.2842 4.70284 20.0878 4.66748 19.8802C4.63212 19.6726 4.64597 19.4596 4.70793 19.2583L5.26751 17.4397C5.41617 16.9494 5.71906 16.5201 6.13119 16.2157C6.54331 15.9113 7.04265 15.748 7.55501 15.75H12.2575C12.7699 15.748 13.2692 15.9113 13.6813 16.2157C14.0934 16.5201 14.3963 16.9494 14.545 17.4397L15.1046 19.2583C15.1677 19.4594 15.1821 19.6726 15.1468 19.8804C15.1114 20.0883 15.0272 20.2847 14.9012 20.4536V20.4534Z" fill="#5B5B5B"/>
<path d="M16.125 6.74999C16.6442 6.74999 17.1517 6.59604 17.5834 6.3076C18.015 6.01916 18.3515 5.6092 18.5502 5.12954C18.7489 4.64988 18.8008 4.12209 18.6996 3.61289C18.5983 3.10369 18.3483 2.63596 17.9812 2.26884C17.614 1.90173 17.1463 1.65173 16.6371 1.55044C16.1279 1.44915 15.6001 1.50114 15.1205 1.69982C14.6408 1.8985 14.2308 2.23495 13.9424 2.66663C13.654 3.09831 13.5 3.60582 13.5 4.125C13.5008 4.82093 13.7777 5.48813 14.2698 5.98023C14.7619 6.47233 15.4291 6.74916 16.125 6.74999ZM16.125 3C16.3475 3 16.565 3.06598 16.75 3.1896C16.935 3.31321 17.0792 3.48891 17.1644 3.69448C17.2495 3.90005 17.2718 4.12625 17.2284 4.34447C17.185 4.5627 17.0778 4.76316 16.9205 4.92049C16.7632 5.07783 16.5627 5.18497 16.3445 5.22838C16.1262 5.27179 15.9 5.24951 15.6945 5.16436C15.4889 5.07921 15.3132 4.93502 15.1896 4.75001C15.066 4.56501 15 4.3475 15 4.125C15.0003 3.82673 15.119 3.54078 15.3299 3.32988C15.5408 3.11897 15.8267 3.00034 16.125 3Z" fill="#5B5B5B"/>
</svg>
