
<svg width="28" height="28" viewBox="0 0 28 28" fill="none" xmlns="http://www.w3.org/2000/svg">
<path d="M22.4614 3.84888H5.3178C4.6484 3.84961 4.00662 4.11586 3.53329 4.58919C3.05995 5.06253 2.7937 5.7043 2.79297 6.3737V18.1562C2.7937 18.8256 3.05995 19.4674 3.53329 19.9407C4.00662 20.4141 4.6484 20.6803 5.3178 20.6811C5.54096 20.6812 5.75495 20.7699 5.91276 20.9277C6.07056 21.0855 6.15927 21.2995 6.1594 21.5227V23.3168C6.1594 23.6215 6.24209 23.9204 6.39865 24.1818C6.55521 24.4431 6.77977 24.6571 7.04838 24.8009C7.317 24.9446 7.61959 25.0128 7.9239 24.9981C8.2282 24.9834 8.52281 24.8863 8.7763 24.7173L14.6182 20.8224C14.7563 20.7299 14.9189 20.6807 15.0851 20.6811H19.1879C19.7392 20.68 20.2752 20.4994 20.7146 20.1664C21.154 19.8335 21.473 19.3664 21.6231 18.8359L24.8975 7.05011C25.0008 6.67481 25.0162 6.28074 24.9423 5.89856C24.8684 5.51637 24.7074 5.15639 24.4716 4.84663C24.2359 4.53687 23.9319 4.28568 23.5832 4.11263C23.2345 3.93957 22.8506 3.84931 22.4614 3.84888ZM23.2742 6.60304L20.0015 18.3847C19.9509 18.5614 19.8441 18.7168 19.6973 18.8275C19.5506 18.9381 19.3717 18.9979 19.1879 18.9978H15.0851C14.5865 18.9972 14.099 19.1448 13.6846 19.4219L7.84262 23.3168V21.5227C7.84189 20.8533 7.57564 20.2115 7.10231 19.7382C6.62897 19.2648 5.9872 18.9986 5.3178 18.9978C5.09463 18.9977 4.88064 18.909 4.72284 18.7512C4.56503 18.5934 4.47632 18.3794 4.47619 18.1562V6.3737C4.47632 6.15054 4.56503 5.93655 4.72284 5.77874C4.88064 5.62094 5.09463 5.53223 5.3178 5.5321H22.4614C22.5915 5.53243 22.7197 5.56277 22.8362 5.62076C22.9526 5.67875 23.0541 5.76283 23.1328 5.86646C23.2114 5.97008 23.2651 6.09045 23.2896 6.21821C23.3141 6.34597 23.3089 6.47766 23.2742 6.60304Z" fill="#5B5B5B"/>
<path d="M7.84161 11.4233H12.0497C12.2729 11.4233 12.4869 11.3347 12.6448 11.1768C12.8026 11.019 12.8913 10.8049 12.8913 10.5817C12.8913 10.3585 12.8026 10.1444 12.6448 9.98661C12.4869 9.82878 12.2729 9.74011 12.0497 9.74011H7.84161C7.6184 9.74011 7.40433 9.82878 7.2465 9.98661C7.08867 10.1444 7 10.3585 7 10.5817C7 10.8049 7.08867 11.019 7.2465 11.1768C7.40433 11.3347 7.6184 11.4233 7.84161 11.4233Z" fill="#5B5B5B"/>
<path d="M15.4161 13.1066H7.84161C7.6184 13.1066 7.40433 13.1952 7.2465 13.3531C7.08867 13.5109 7 13.725 7 13.9482C7 14.1714 7.08867 14.3855 7.2465 14.5433C7.40433 14.7011 7.6184 14.7898 7.84161 14.7898H15.4161C15.6393 14.7898 15.8534 14.7011 16.0112 14.5433C16.169 14.3855 16.2577 14.1714 16.2577 13.9482C16.2577 13.725 16.169 13.5109 16.0112 13.3531C15.8534 13.1952 15.6393 13.1066 15.4161 13.1066Z" fill="#5B5B5B"/>
</svg>