<svg width="28" height="28" viewBox="0 0 28 28" fill="none" xmlns="http://www.w3.org/2000/svg">
<path d="M22.4266 2.856H21.8666V1.428C21.8666 0.56 21.2786 0 20.4386 0C19.5986 0 19.0106 0.56 19.0106 1.428V2.856H9.71459V1.428C9.71459 0.56 9.15459 0 8.28659 0C7.41859 0 6.85859 0.56 6.85859 1.428V2.856H5.57059C2.85459 2.856 0.558594 5.152 0.558594 7.868V23.016C0.558594 25.732 2.85459 28.028 5.57059 28.028H22.4266C25.1426 28.028 27.4386 25.732 27.4386 23.016V7.868C27.4386 5.152 25.1426 2.856 22.4266 2.856ZM5.57059 5.712H22.4266C23.5746 5.712 24.5826 6.72 24.5826 7.868V9.856H3.41459V7.868C3.41459 6.72 4.42259 5.712 5.57059 5.712ZM22.4266 25.144H5.57059C4.42259 25.144 3.41459 24.136 3.41459 22.988V12.712H24.5546V22.988C24.5826 24.136 23.5746 25.144 22.4266 25.144Z" fill="#2F4CDD"/>
</svg>
