<svg width="22" height="20" viewBox="0 0 22 20" fill="none" xmlns="http://www.w3.org/2000/svg">
<path fill-rule="evenodd" clip-rule="evenodd" d="M4.5918 0.5C2.31362 0.5 0.466797 1.96207 0.466797 3.76562V16.2344C0.466797 18.0379 2.31362 19.5 4.5918 19.5H17.3418C19.62 19.5 21.4668 18.0379 21.4668 16.2344V3.76563C21.4668 1.96207 19.62 0.5 17.3418 0.5H4.5918ZM2.7168 3.76562C2.7168 2.94583 3.55626 2.28125 4.5918 2.28125H17.3418C18.3773 2.28125 19.2168 2.94583 19.2168 3.76563V16.2344C19.2168 17.0542 18.3773 17.7188 17.3418 17.7188H4.5918C3.55626 17.7188 2.7168 17.0542 2.7168 16.2344V3.76562ZM7.2168 5.84375C7.2168 6.33563 6.71312 6.73438 6.0918 6.73438C5.47048 6.73438 4.9668 6.33563 4.9668 5.84375C4.9668 5.35187 5.47048 4.95312 6.0918 4.95312C6.71312 4.95312 7.2168 5.35187 7.2168 5.84375ZM8.3418 5.84375C8.3418 5.35187 8.84548 4.95312 9.4668 4.95312H15.8418C16.4631 4.95312 16.9668 5.35187 16.9668 5.84375C16.9668 6.33563 16.4631 6.73438 15.8418 6.73438H9.4668C8.84548 6.73438 8.3418 6.33563 8.3418 5.84375ZM6.0918 15.0469C6.71312 15.0469 7.2168 14.6481 7.2168 14.1562C7.2168 13.6644 6.71312 13.2656 6.0918 13.2656C5.47048 13.2656 4.9668 13.6644 4.9668 14.1562C4.9668 14.6481 5.47048 15.0469 6.0918 15.0469ZM9.4668 13.2656C8.84548 13.2656 8.3418 13.6644 8.3418 14.1562C8.3418 14.6481 8.84548 15.0469 9.4668 15.0469H15.8418C16.4631 15.0469 16.9668 14.6481 16.9668 14.1562C16.9668 13.6644 16.4631 13.2656 15.8418 13.2656H9.4668ZM7.2168 10C7.2168 10.4919 6.71312 10.8906 6.0918 10.8906C5.47048 10.8906 4.9668 10.4919 4.9668 10C4.9668 9.50812 5.47048 9.10938 6.0918 9.10938C6.71312 9.10938 7.2168 9.50812 7.2168 10ZM8.3418 10C8.3418 9.50812 8.84548 9.10938 9.4668 9.10938H15.8418C16.4631 9.10938 16.9668 9.50812 16.9668 10C16.9668 10.4919 16.4631 10.8906 15.8418 10.8906H9.4668C8.84548 10.8906 8.3418 10.4919 8.3418 10Z" fill="black"/>
</svg>
