<svg width="28" height="28" viewBox="0 0 28 28" fill="none" xmlns="http://www.w3.org/2000/svg">
<path d="M14 9.625C13.1347 9.625 12.2888 9.88159 11.5694 10.3623C10.8499 10.843 10.2892 11.5263 9.95803 12.3258C9.6269 13.1252 9.54026 14.0048 9.70907 14.8535C9.87788 15.7022 10.2946 16.4817 10.9064 17.0936C11.5183 17.7054 12.2978 18.1221 13.1465 18.2909C13.9951 18.4597 14.8748 18.3731 15.6742 18.042C16.4737 17.7108 17.1569 17.1501 17.6377 16.4306C18.1184 15.7111 18.375 14.8653 18.375 14C18.3736 12.8401 17.9122 11.7281 17.0921 10.9079C16.2719 10.0877 15.1599 9.62637 14 9.625ZM14 16.625C13.4808 16.625 12.9733 16.471 12.5416 16.1826C12.1099 15.8942 11.7735 15.4842 11.5748 15.0045C11.3761 14.5249 11.3242 13.9971 11.4254 13.4879C11.5267 12.9787 11.7767 12.511 12.1438 12.1438C12.511 11.7767 12.9787 11.5267 13.4879 11.4254C13.9971 11.3241 14.5249 11.3761 15.0045 11.5748C15.4842 11.7735 15.8942 12.1099 16.1826 12.5416C16.471 12.9733 16.625 13.4808 16.625 14C16.6242 14.6959 16.3474 15.3632 15.8553 15.8553C15.3632 16.3474 14.696 16.6242 14 16.625Z" fill="#FF6D4D"/>
<path d="M5.49029 8.55982C5.06003 8.39818 4.58376 8.41024 4.16224 8.59346C3.74072 8.77668 3.407 9.11668 3.23168 9.54155C3.05635 9.96642 3.05318 10.4428 3.22283 10.87C3.39248 11.2972 3.72164 11.6416 4.14069 11.8304C4.56699 12.0107 4.93072 12.3126 5.18644 12.6984C5.44216 13.0843 5.57854 13.5369 5.57854 13.9997C5.57854 14.4626 5.44216 14.9152 5.18644 15.301C4.93072 15.6869 4.56699 15.9888 4.14069 16.1691C3.72154 16.3579 3.3923 16.7024 3.22263 17.1296C3.05295 17.5569 3.05617 18.0334 3.23158 18.4583C3.407 18.8833 3.74085 19.2233 4.1625 19.4064C4.58416 19.5896 5.06053 19.6015 5.49081 19.4397C5.92019 19.2648 6.39161 19.2205 6.84604 19.3124C7.30047 19.4042 7.71769 19.6281 8.04543 19.956C8.37318 20.2839 8.59688 20.7013 8.68852 21.1557C8.78015 21.6102 8.73565 22.0816 8.56057 22.5109C8.39369 22.9423 8.40405 23.4222 8.58939 23.846C8.77474 24.2698 9.12005 24.6032 9.55011 24.7736C9.76548 24.8627 9.99629 24.9086 10.2294 24.9086C10.5699 24.911 10.9035 24.8128 11.1885 24.6263C11.4734 24.4399 11.697 24.1735 11.8311 23.8605C12.0115 23.4342 12.3134 23.0705 12.6992 22.8148C13.085 22.559 13.5376 22.4227 14.0005 22.4227C14.4634 22.4227 14.916 22.559 15.3018 22.8148C15.6876 23.0705 15.9895 23.4342 16.1698 23.8605C16.3587 24.2797 16.7031 24.6089 17.1304 24.7786C17.5576 24.9482 18.0342 24.945 18.4591 24.7696C18.884 24.5942 19.224 24.2603 19.4072 23.8387C19.5903 23.417 19.6022 22.9407 19.4404 22.5104C19.2655 22.081 19.2213 21.6096 19.3131 21.1552C19.405 20.7007 19.6289 20.2835 19.9568 19.9558C20.2847 19.628 20.702 19.4043 21.1565 19.3127C21.611 19.221 22.0824 19.2655 22.5117 19.4406C22.9404 19.6071 23.4174 19.5981 23.8395 19.4158C24.2617 19.2334 24.5952 18.8923 24.7679 18.466L23.9656 18.1174L23.1693 17.8192C22.4215 17.5137 21.6 17.4361 20.8082 17.5962C20.0164 17.7563 19.2895 18.147 18.7191 18.719C18.1492 19.2936 17.7576 20.0207 17.5915 20.8128C17.4255 21.605 17.4922 22.4282 17.7834 23.1833C17.4713 22.438 16.9456 21.8019 16.2725 21.355C15.5993 20.9082 14.809 20.6706 14.0011 20.6723C13.1914 20.6748 12.3997 20.9119 11.722 21.355C11.0443 21.798 10.5095 22.428 10.1823 23.1686C10.4876 22.4208 10.5651 21.5993 10.405 20.8076C10.2449 20.0158 9.85442 19.289 9.28254 18.7185C8.70792 18.1486 7.98075 17.757 7.18867 17.591C6.39658 17.425 5.57339 17.4916 4.81829 17.7828C5.56348 17.4705 6.19955 16.9447 6.64631 16.2715C7.09308 15.5983 7.33054 14.8079 7.32875 14C7.32624 13.1903 7.08911 12.3986 6.64607 11.7209C6.20302 11.0432 5.57304 10.5084 4.83237 10.1812C5.58021 10.4867 6.40169 10.5643 7.1935 10.4042C7.98532 10.2441 8.71212 9.85348 9.28254 9.28144C9.85251 8.70687 10.2441 7.9797 10.4101 7.1876C10.5762 6.39549 10.5095 5.57227 10.2183 4.81719C10.5305 5.56238 11.0563 6.19845 11.7295 6.64521C12.4027 7.09198 13.1931 7.32944 14.0011 7.32765C14.8108 7.32514 15.6024 7.08801 16.2801 6.64497C16.9579 6.20192 17.4927 5.57194 17.8198 4.83127C17.5145 5.57915 17.437 6.40057 17.5971 7.19235C17.7572 7.98412 18.1477 8.71092 18.7196 9.28144C19.2943 9.85111 20.0215 10.2425 20.8135 10.4085C21.6056 10.5745 22.4287 10.5081 23.1838 10.2172C22.4422 10.5287 21.8087 11.0517 21.3623 11.7208C20.9159 12.3899 20.6763 13.1757 20.6734 13.98C20.6705 14.7844 20.9044 15.5719 21.346 16.2442C21.7875 16.9165 22.4172 17.4441 23.1565 17.761C23.1589 17.7682 23.1589 17.776 23.1565 17.7832L23.9653 18.1169L24.7693 18.4617L24.7741 18.4506C24.9527 18.0268 24.9571 17.5497 24.7862 17.1228C24.6154 16.6959 24.2831 16.3535 23.8614 16.17C23.4351 15.9896 23.0714 15.6877 22.8157 15.3019C22.56 14.9161 22.4236 14.4635 22.4236 14.0006C22.4236 13.5377 22.56 13.0851 22.8157 12.6993C23.0714 12.3135 23.4351 12.0116 23.8614 11.8313C24.2806 11.6425 24.6098 11.298 24.7795 10.8707C24.9492 10.4435 24.946 9.96696 24.7705 9.54203C24.5951 9.1171 24.2613 8.77708 23.8396 8.59393C23.418 8.41078 22.9416 8.39886 22.5113 8.5607C22.0819 8.73556 21.6105 8.77984 21.1561 8.68799C20.7017 8.59613 20.2844 8.37223 19.9567 8.04432C19.6289 7.71641 19.4052 7.29909 19.3136 6.84462C19.222 6.39015 19.2665 5.91874 19.4415 5.48945C19.6033 5.05918 19.5914 4.58286 19.4082 4.16126C19.225 3.73966 18.885 3.40585 18.4601 3.23048C18.0352 3.05511 17.5587 3.05192 17.1315 3.22159C16.7043 3.39126 16.3599 3.72048 16.1711 4.13959C15.9907 4.56589 15.6888 4.92962 15.303 5.18534C14.9172 5.44106 14.4646 5.57744 14.0017 5.57744C13.5388 5.57744 13.0862 5.44106 12.7004 5.18534C12.3146 4.92962 12.0127 4.56589 11.8324 4.13959C11.6436 3.72044 11.2991 3.3912 10.8718 3.22153C10.4446 3.05186 9.96806 3.05507 9.54313 3.23048C9.1182 3.4059 8.77818 3.73975 8.59503 4.16141C8.41188 4.58306 8.39996 5.05943 8.5618 5.48971C8.73666 5.91909 8.78094 6.39051 8.68909 6.84494C8.59723 7.29937 8.37333 7.71659 8.04542 8.04433C7.71751 8.37208 7.30019 8.59578 6.84572 8.68742C6.39125 8.77905 5.91984 8.73455 5.49055 8.55947L5.49029 8.55982Z" fill="#FF6D4D"/>
</svg>
